<svg id="Слой_1" data-name="Слой 1" xmlns="http://www.w3.org/2000/svg" viewBox="0 0 1366 1366"><defs><style>.cls-1{fill:#dfe5ea;}.cls-2{fill:#dda222;}.cls-3{fill:#672833;}.cls-4{fill:#d7a828;}.cls-5{fill:#e3e8ed;}</style></defs><title>Монтажная область 1</title><path class="cls-1" d="M829,1020c-2.07-13.28-4.87-23.88-7.94-36.17q-19.9-79.46-42.35-158.23-15.2-53.74-30.47-107.43l-10.29-33.48a246,246,0,0,0-10.22-35l-24.51-83.6A49.47,49.47,0,0,0,701,549.18Q663.3,425.9,625.54,302.64c-.8-2.62-1.71-5.21-2.58-7.82-.5-1.52-1-3.08-2.82-3.79-3.27-7-6.77-13.94-9.76-21.06-3.19-7.6-9.84-11.78-18.58-13.32-11.19-2-16.41-7.1-16.61-17.48-.28-15-5.84-29.32-4.64-44.69a109.31,109.31,0,0,1,4.32-23.73c2.32-7.56,7.46-13.71,15.94-15.65,9.8-2.24,16.74,2.7,22.62,8.53,8.1,8,12.57,18,17.84,27.5,2.22,4,2.28,9.27,2.61,13.66.78,10.33,5.81,19.52,6,29.85-2.16,2.81-1.26,5.06,1,7.06,5.3,27.9,10.75,55.77,15.84,83.71,3.68,20.21,12.64,38.67,19.22,57.91q29.33,85.72,59.44,171.19c26,74.05,52.29,148,78.28,222,7.35,20.94,14.48,41.95,22.83,62.53,23.79,67.32,47.79,134.57,73.85,201.11l.53,3v0l1.77,5.17-.32.1.31,0,2.35,5.32a2.3,2.3,0,0,0,1.16,3.23c5.24,12.17,11,24.16,15.57,36.57,3.73,10.15,11.92,14.37,23.65,15.23,2.18.16,5.19-1.18,6.06,1.64.75,2.41-1.66,4-3.23,5.49-9.52,9-21.43,14.79-34,19.35-26.89,9.72-54.68,14-82.73,16.57-3.58.32-6.55-.71-8.26-2.91-2-2.64.94-4.86,3.14-6.56,9.48-7.34,12.83-16.16,11.08-26.05-1.6-9.07-2.39-17.46-4.39-27.46-.69-4.42-2-9-2.69-12.94C837,1057,832.66,1038.35,829,1020Z"/><path class="cls-2" d="M933.54,658.72c12.58,7.09,19.81,17.07,19.65,30.94l.06-.14C949,696,946,700,939.21,705.43,928.16,711.61,917,717.51,904.5,721c-5.33,1.48-6,6.2-6.84,9.73-3.51,15.48-3.2,30.87-1.54,46,3.52,32.11,8.79,63.91,14,95.71,4.64,28.25,9.65,56.44,13.81,84.78,2.92,19.9,6.46,39.87,0,60.63a81.2,81.2,0,0,1-7.56,17.37c-26.06-66.54-50.07-133.79-73.85-201.11a142,142,0,0,0,.61-16.93c-1-27.62-2-55.22.8-83.13.21-2.08.9-4.18,1-6.25.55-11.14,4.33-20,19.28-23.25,4.78-1,9.42-3.87,13.73-6.79,20.47-13.93,22-30.36,3.79-43.77a96,96,0,0,0-28.5-14.34c-1.9-.6-8.21-2.64-3-2.88,2.82-.76,2.65-.6,3.93-.5,24.09,1.77,46,8.71,67.34,16.74"/><path class="cls-1" d="M805.4,519.27c7.51,8.89,14.9,17.87,22.59,26.64,3.31,3.77,3.14,7.56,1.29,12.23-8.53,21.57-16.47,43.22-20.62,65.51-4.66,25.07-3.48,49.55.39,73.79,4.74,29.64,10,59.17,16.51,88.42,1.55,7-5.56-14.85-8.56-22.85-2-7-38-105-42-114-2-6-1-5-3-10-13-38,2,8-10-30-10.82-34.27-4.05-16.22,10.1-50.73q5.52-13.45,11.85-26.71c1.59-3.32,1.09-5.42-1.26-7.9-7.88-8.33-15.44-16.89-23.08-25.4-.89-1-2.4-1.91-1.63-3.52.68-1.42,2.07-1.07,3.45-1,20.76.29,41.06,2.25,60.5,7.37.29,2.48,1.59,4.74,4.4,5,9.23.71,16.72,5.24,25.69,6.45A36.24,36.24,0,0,1,866.91,518c-9.5.71-16.24-1.61-23.3-2.67-9.71-1.45-19.26-3.61-29.29-3.76C809.07,511.47,804.43,515.92,805.4,519.27Z"/><path class="cls-2" d="M569.46,332.55c-4.1-15.26-12.1-28.3-28.62-35.77-7.83-5.1-16.8-8.37-26.39-10.65a155.84,155.84,0,0,0-32-6.54c-6.32-1.16-12.58-2.6-19.39-1.56-11.35-2.86-23.52-1.54-35.32-2-10.84-.43-21.9.42-32.86.77a35.81,35.81,0,0,1-13.89-1.9c-9.66-3.59-19.53-6.81-29.85-10.36,2.4-2.75,5.76-3.21,8.54-4.52a120.14,120.14,0,0,0,29-7c15.2-5.81,29.86-5.83,44.73-3.4,10.08,5.26,19.85,11,30.41,15.52,3.88,1.67,9.59.9,14.48.62,19.06-1.1,37.32,1.39,55.64,3.92,13.64,1.88,26.49,5.18,38.4,10.61,19.17,8.75,31.34,21.71,34.87,41.37,3.36,18.72,6.63,37.47,8.65,56.4,1.84,17.21,5.59,34.17,5.81,51.55.2,15.18,2.27,30.06,3.46,45,1,12.34,2.18,24.77,4,37,2.59,17.19,2.14,35,4.18,52.19,2,16.59,3.14,33.31,5.34,49.86,1.6,12,1.88,24.3,4.26,36.22.51,2.57-.5,5.48-1.52,8.45-2.11-9.22-4.74-18.34-6.23-27.68-4.64-29-11-57.53-16.76-86.23C611.73,511,605,477.58,597.66,444.3c-4.93-22.33-8.92-44.92-16.3-66.62-1.56-6.82-2.7-13.76-4.83-20.4"/><path class="cls-3" d="M942.74,706.15c7.64-2.84,9.17-10.32,15.2-14.37a.14.14,0,0,1,.21.08c4.79,20.75,3.72,42.23,5.5,63.34,2.24,26.45,3.16,53,4.71,79.58q2.62,44.85,5.33,89.69l-.24.25h0l.88,9.65c-.71.57-.53,1.07.27,1.51a.13.13,0,0,1,.07.1l1.16,18.89a.13.13,0,0,1,0,0c-1.19,3.83-2,7.63.24,11.22a.12.12,0,0,1,0,0c1.35,11.78,5.23,23.15,5.15,35.16a.14.14,0,0,1-.06.1c-1,.68-.71,1.29,0,1.86a.13.13,0,0,1,.05.1c-.11,21.78-1.24,43.42-16.17,63.31-.88,1.17-1.35,2.58-4.19,2.81a.14.14,0,0,1-.15-.13c-.55-11.48-1.12-23-1.64-34.51q-2.73-60.48-5.42-121c-1.79-41.68-3.06-83.41-5.3-125-1.48-27.57-.42-55.44-5.74-82.6A.13.13,0,0,1,942.74,706.15Z"/><path class="cls-1" d="M775.43,1072.14c7.59,25.46,6.53,48.48,44.83,79.6-6.34,1.56-11.76.09-17.07-.89a84.62,84.62,0,0,1-40-19.13c-20.86-17.7-43.08-34.55-49.74-61.5-2.85-11.54-6.68-22.82-9.72-34.32-.91-3.46-3.33-6.6-2.23-11.88,16.11,15.67,34.45,26.11,56.52,36C765,1064,770,1068,775.43,1072.14Z"/><path class="cls-1" d="M434.44,247.57c-14.86-2.43-29.53-2.41-44.73,3.4a120.14,120.14,0,0,1-29,7c-14.94,1.64-30,1.94-44.49,7.73-23.19,9.26-47.08,15.08-71.89,15.41-3.42,0-6.7,2.36-11,1.08,5.93-6.72,14.13-10.37,21.18-15.1,27.79-18.66,58.8-26.48,92-27.21,17.1-.38,34.21-1,51.27-.9,7.86.05,15.3-3.54,23-5.33a256.17,256.17,0,0,1,79.11-6.36c2.14.66,4.32,1.26,6.42,2,8,2.77,16.09,5.46,20.73,12.21-15.94,2.88-31.89,5.93-46.51-.89-5.23-2.44-11-2.2-16.93-.61C453.84,242.62,444.13,245.07,434.44,247.57Z"/><path class="cls-3" d="M958,691.8c1.47-13.79-4.78-24.41-16.64-32.66-1.83-1.27-3.71-2.39-4.36-4.46-2-8.12,1.49-12.38,11.41-16.17,24.93-9.51,34.49-37.28,21.2-57.76a69.57,69.57,0,0,0-23.22-22.07,6.78,6.78,0,0,1,6.36-.86c21.79,7.31,42.22,16.26,56.11,32.82s11.59,39.18-6,53.56c-11.15,9.1-24.42,13.93-39.41,12.46-5.39-.53-5.88.77-5.52,4.58.75,8,1,16,1.72,24A8.89,8.89,0,0,1,958,691.8Z"/><path class="cls-3" d="M460.11,281c6.8-1,13.06.4,19.39,1.56-13,17.69-26.14,35.32-48.75,45.48-10.38,4.66-21,9-31.07,14.12-11.93,6.08-24.28,4.21-36.45,5.51-6.93.74-13.87,0-20.84,1.47-1.39.29-3.06.51-3.38-.74a3.78,3.78,0,0,1,1.28-3.14q23.18-19.5,46.52-38.86c2.94-2.45,6.8-2.94,10-2.75,10.65.64,21.21-2.45,31.8-2.54a25.19,25.19,0,0,0,18.5-7.79C451.23,289.12,455.75,285.13,460.11,281Z"/><path class="cls-2" d="M746.08,1041.87c30.69.52,52.52-13.53,69.53-35.54,1.2-1.56,2-3.48,4.47-4,3.66,18.35,11.33,35.68,12.24,54.78a128,128,0,0,0,1.55,13.33c-12.83,4.6-24.56,1.91-36.19-1.15-11.43-3-22.11-8.81-31.67-13.25"/><path class="cls-1" d="M569.14,347.73c4.55,3.48,3.93,9,5.39,13.55,2.12,6.64,3.26,13.59,4.83,20.4a195.77,195.77,0,0,1-43.5-22.36c-12.92-9-18.91-21.12-20.25-35.61q-1.56-16.79-3.16-33.58c9.59,2.29,18.57,5.55,26.39,10.65-1.19,8,.24,15.64,1.06,23.36.54,5,2.15,10.08,7.14,12.89C554.09,341,560.84,345.47,569.14,347.73Z"/><path class="cls-2" d="M691.52,858.65l13,49.86c-1.95-1.6-.85-5.48-4.11-6.53l-.21,76.51c-3.92-.54-4-2.93-4.25-4.71-7.32-49.74-16.17-99.29-25-148.85-8.79-49.22-16.93-98.54-25.36-147.82l1.89,5.21,31.12,124.31a6.31,6.31,0,0,0-3,4.08,31.47,31.47,0,0,0,2.75,21.2C682.73,840.8,683.51,852,691.52,858.65Z"/><path class="cls-1" d="M805.4,519.27c-1-3.35,3.67-7.8,8.92-7.72,10,.15,19.58,2.31,29.29,3.76,7.05,1.05,13.8,3.38,23.3,2.67A36.24,36.24,0,0,0,852,512.47c-9-1.21-16.45-5.74-25.69-6.45-2.81-.22-4.11-2.47-4.4-5,43.9,8.14,84.72,21.39,118.67,46,1.46,1.06,3.6,4.41,1.61,3.94-4.22-1-3.07-.52-4.47-1.16-38.66-17.64-79.44-30.62-125-33C810,516.66,806.77,515.4,805.4,519.27Z"/><path class="cls-3" d="M529,239.55c-4.64-6.76-12.72-9.44-20.73-12.21-2.1-.73-4.28-1.33-6.42-2,3.17-7.25,7.54-13.94,14.7-19,10.79-7.64,23.37-5.43,28.17,4.85,3.31,7.08,4.85,14.71,6.51,22.29.93,4.23-1.57,6.14-6.37,6.14C539.53,239.6,534.24,239.57,529,239.55Z"/><path class="cls-4" d="M916.14,1057.13a2.3,2.3,0,0,1-1.16-3.23C916.36,1054.64,917,1055.64,916.14,1057.13Z"/><polygon class="cls-4" points="910.88 1043.27 910.87 1043.24 911.27 1043.16 910.88 1043.27"/><polygon class="cls-4" points="912.63 1048.58 912.32 1048.54 912.64 1048.44 912.97 1048.48 912.63 1048.58"/><path class="cls-5" d="M1295.85,665c.86,2.07,2.84.89,2.37-4.78l-3.36-4Z"/><path class="cls-5" d="M1300.77,626.58a37.57,37.57,0,0,0-3.77-9c-1.45-2.12-3-2.83-4.32-.57,3.6,6.34,2.37,8,6.6,14.93.65,5.68-.67,10-1.92,9.07.92,2-.35,8.83,1.7,11.85a36.53,36.53,0,0,0,1.66-12.47,57.38,57.38,0,0,0-.58-6.95,61.63,61.63,0,0,0-1.61-7.18C1299.14,624.14,1300.13,626.13,1300.77,626.58Z"/><path class="cls-5" d="M1041.51,149.91l2.7,2.46A21.71,21.71,0,0,0,1041.51,149.91Z"/><path class="cls-5" d="M717,32.47c2.66.09,3.8-.17,4-.46C718.51,32.07,716.46,32.14,717,32.47Z"/><path class="cls-5" d="M657.22,27.66l3.55.15A7.46,7.46,0,0,0,657.22,27.66Z"/><path class="cls-5" d="M1041.51,149.91l-7.06-6.18C1033.29,144.25,1037.93,147.09,1041.51,149.91Z"/><path class="cls-5" d="M1283.59,551.6a31.38,31.38,0,0,0,1.76,4.72l-1.2-4.52A2.52,2.52,0,0,1,1283.59,551.6Z"/><path class="cls-5" d="M1156.83,251.71l1.84,2.17a15,15,0,0,0,2.55.94Z"/><path class="cls-5" d="M1225.74,348.06c-1.26-2.37-4.16-1.76-5.74-2a11,11,0,0,1,4.62,4.05C1225.1,349.86,1225.49,349.24,1225.74,348.06Z"/><path class="cls-5" d="M1289.47,523.68l1.09,3.15C1290.25,526,1289.83,524.62,1289.47,523.68Z"/><path class="cls-5" d="M1097.84,190.73a2.34,2.34,0,0,0-.14-1.47C1097.46,189.52,1097.56,190.06,1097.84,190.73Z"/><path class="cls-5" d="M1275,797c.18.13.33,0,.49.1C1275.4,796.38,1275.25,796.14,1275,797Z"/><path class="cls-5" d="M1303.23,665l.13,1.89a4.6,4.6,0,0,0,1.57.41Z"/><path class="cls-5" d="M547.35,36.53l.49,0C550.64,35.62,549,36,547.35,36.53Z"/><path class="cls-5" d="M50.26,800.26c0-5.86,1.79-1.47,3.45,2.18s3.19,6.56,2.73-2.1C55.71,802.17,48.83,786,50.26,800.26Z"/><path class="cls-5" d="M1283.39,548.59c-.33-1.53-.65-3.08-.92-4.65A35.71,35.71,0,0,0,1283.39,548.59Z"/><path class="cls-5" d="M56.44,800.35h0l-.12-1.78Z"/><path class="cls-5" d="M315,136.39a7.68,7.68,0,0,0,2.82-.46C317.6,135.74,316.92,135.79,315,136.39Z"/><path class="cls-5" d="M486.08,58l-4.54,1.08A40.61,40.61,0,0,0,486.08,58Z"/><path class="cls-5" d="M241.07,200.71c-2,1.57-2.91,1.86-5.16,4.51a6.93,6.93,0,0,0,1-.48A12.55,12.55,0,0,1,241.07,200.71Z"/><path class="cls-5" d="M172.61,275.77c.5-.3,1.06-.76,1.59-1.14.57-.83,1.24-1.8,1.86-2.63C174.88,273.23,173.77,274.52,172.61,275.77Z"/><path class="cls-5" d="M1144.74,1062.92a15,15,0,0,1,4.88-1.85C1147.11,1060.94,1155.91,1049.43,1144.74,1062.92Z"/><path class="cls-5" d="M1285.14,551.26a4,4,0,0,1-1.75-2.67c.25,1.11.51,2.17.77,3.21C1284.63,552,1285,552,1285.14,551.26Z"/><path class="cls-5" d="M253.29,219.62c-3.88,3.46-7.65,7-11.49,10.57C245.13,227.35,249.24,223.44,253.29,219.62Z"/><path class="cls-5" d="M504.67,1257.19c1.18.24,2.36.46,3.55.66A11.53,11.53,0,0,0,504.67,1257.19Z"/><path class="cls-5" d="M210.56,264.36a41,41,0,0,0-7.16,5.46,7,7,0,0,0-.62,1.85Z"/><path class="cls-5" d="M1149.66,1061.06s0,0,0,0S1149.63,1061.07,1149.66,1061.06Z"/><path class="cls-5" d="M1203.35,973.06c-7.61,12.71-.44,7.86-.23,11.67-8.55,15.71-6.68,5.57-11.47,9.68a131.39,131.39,0,0,0-6.1,13.92,57.21,57.21,0,0,1-6,11.58c-.85.16-1.95,1.36-1.5-.64a50.81,50.81,0,0,1-5.15,9.39c-1.11,1.69-2.3,3.44-3.55,5.23l-4,5.34c-2.68,3.61-5.36,7.29-7.85,10.79a71.18,71.18,0,0,0-6.06,10.23,4.25,4.25,0,0,1-1.86.79c2.86-.52,4.53.42,5.27,1.62-4.33,5.19-6.32,11.15-9.85,11.46,2.8-3.07,2.24-4,2.93-6-1.26,2-2.5,4.07-3.82,6.05-3.42,1.24-2-.77-.06-3.29s4.45-5.67,3.47-6.5c-3.94,5.66-8.19,11.83-12.32,17.62-2.11,2.86-4.24,5.56-6.32,8a51.8,51.8,0,0,1-6.16,6.35c-3.85-.66,16-18.79,4.25-10.55l6-5.52,5.89-5.66c-12.24,5.72,6.82-7.12-5-2.41-1.86,1.9-3.47,3.63-4.91,5.22s-2.77,3-3.95,4.31c-2.35,2.66-4.2,5-6.09,7.3s-3.84,4.55-6.25,7.16c-1.22,1.3-2.51,2.72-4.07,4.19s-3.29,3.08-5.27,4.85c-2.11,4.7,3.08.89,1,5.61a70.68,70.68,0,0,1-6.7,7.18,49.52,49.52,0,0,1-5.51,4.52,35.29,35.29,0,0,1-8.62,4.21,33,33,0,0,0-7.34,3.29c-2.56,1.6-5.35,4.1-8.87,8.55-1.47,2.73-2,5.21-3.89,8.11s-5.07,6.19-12.12,10.09l1.95-6.33c-8.3,6.13-9.8,9-11.65,11.71a19.31,19.31,0,0,1-3.85,4.32,39.71,39.71,0,0,1-3.76,2.77c-1.57,1-3.54,2.13-5.95,3.42,2.36-3.36,12.49-10.51,9.7-9a33.11,33.11,0,0,0-6.72,3.72,9.8,9.8,0,0,0-2.72,3,16.89,16.89,0,0,1-6.26,7l-3.76-1.56c-17.9,12.69-37.48,27.29-58.95,39.13.74-1.53,3.93-4.42-1.59-2.68a296.21,296.21,0,0,1-43.36,20.55,445.69,445.69,0,0,1-45,14.16l-9.84,6.28c-2.52.78-5.06.14-2.5-1.2-11.36,2.22,0,1.95-5,4.64-6.26,2.08-8.79.86-5.05-1.18l-3.71,1.59-4.09,1.59c-2.83,1.09-5.87,2.23-9.05,3.38s-6.55,2.18-10,3.27L815,1267c-1.76.5-3.53,1-5.31,1.44-14.19,3.92-28.9,6.3-39.75,6.48l4-1.55a53.57,53.57,0,0,0-5.58.82,38.57,38.57,0,0,0-4.49,1.12,64,64,0,0,0-7.09,2.84,33.32,33.32,0,0,1-7,2.42,34.42,34.42,0,0,1-9.61.62l2.91-.86c-18.18,1.35-37.3,2.93-55.4,3.26s-35.16-.64-48.85-3.62c-2.75,1.93-11.73,1-20.29-.13-2.14-.26-4.26-.5-6.26-.67s-3.87-.37-5.52-.39c-3.3-.05-5.74.4-6.5,1.79-5.1-1.27-8.5-2.46-11.22-3.36l-7-2.44c-2.29-.77-4.83-1.64-8.57-2.68l-15.74-4.19c-7.57-1.66-12.08,1.28-21.69-.15l.46-3.05-13.48,0c-2-1.72-3.9-3.53-5.82-5.32l-8.92-1.59c3.42,1.11,7,3.33,6.26,4a71.13,71.13,0,0,1-11-2.81c-3.7-1.27-7.32-2.72-10.49-4.14-6.31-2.92-10.8-5.78-10.72-6.57l-4.06-1-4-1.07-8.08-2.15c-2.71-.69-5.37-1.51-8-2.29l-8-2.36c1.15-.89,6.52.7,10.92,1.52-8.87-1.69-9.34-2.74-9.61-3.74a2.05,2.05,0,0,0-1.3-1.56c-1.06-.59-3.09-1.27-7.13-2.14,1.76,1.47-1.79,1.25-2.37,1.69a71.18,71.18,0,0,0-6.8-4c-2.74-1.47-5.88-3-9.22-4.55l-2.54-1.15-2.56-1.2c-1.72-.8-3.46-1.58-5.19-2.35l-10-4.34,3.28-.74c-21.88-11.29-46.6-23.18-69.71-38.56,7.76,6.29,3.89,8.16-3.16,3.94l-.93-4.51c-5.53-1.23,6.46,5.72-4,1.8-8.41-6.21-3.67-7,1.81-4.51l-11-6.25c0-1.22,2.68,0,4-.53a14.44,14.44,0,0,1-4.9-2.92c-1.84-1.54-3.88-3.47-6-5.41-4.27-3.83-8.72-7.84-12.74-8.72l0-1.2-4-3-3.68-2.92-6.76-5.29-11.72-9.34c-3.66-3-7.13-5.9-10.8-9s-7.34-6.49-11.51-10.28c-2.3,1.78-8.16-4.88-14.61-8-11.16-12.48-22.11-27.5-35.12-42.69-1.27-1.23-2.3-2.18-3.12-2.91a21.83,21.83,0,0,0-1.91-1.6c-1-.69-1.37-.71-1.63-.54-.53.35-.46,1.48-3.11-.47.68-1.22-2.22-5.67-4.19-9s-3.1-5.5.78-1.95l-5.15-6.48c-1.59-2-3.06-3.82-4.4-5.62-2.71-3.57-5.21-6.74-7.81-10.1s-5.26-6.91-8.53-11.08l-5.2-6.93c-1.9-2.52-4-5.25-6.22-8.37.44,1.68,1,3.39,1.34,4.51s.28,1.67-.62,1.1c-3.34-4.47-5.8-11.29-4.33-11.25l1,1.1c-10.68-13.55-18.84-31.81-25.75-49.39-3.5-8.78-6.65-17.44-9.92-25.31-1.59-4-3.24-7.7-5-11.17a79.05,79.05,0,0,0-5.33-9.64l.82,1.31c-1.09-2.09-2.24-4.16-3.28-6.28L98,883.2l-3.15-6.36-3-6.43c-3.9-12.41,4.4,6.71,2.71-2.88q-1.32-2.55-2.5-5c-.75-1.65-1.45-3.27-2.12-4.86-1.33-3.19-2.51-6.26-3.57-9.24s-1.87-5.92-2.69-8.76S82,834,81.39,831.27c-2.68-11-4.86-21.46-8.9-33.4a41.85,41.85,0,0,0,.29-8.82,103.74,103.74,0,0,0-1-10.74l-.91-5.92q-.45-3-1-6.22l-1.15-6.43c-.41-2.17-.73-4.38-1.11-6.6-1.56-8.86-2.9-18-3.78-26.52-.36-4.28-.62-8.42-.71-12.3a78.55,78.55,0,0,1,.52-10.82L62,705.12c-2.17-6.63.46-8.21.71-13.18-1.35.76-1.32,7.39-2.45,3.24-.52-7.14-1.05-14.35-1.14-21.62L59,668.11c0-1.82-.06-3.65,0-5.48l.21-11c.57-14.68,1.68-29.49,3.7-44.21l.71-5.53.86-5.51c.59-3.67,1.11-7.35,1.76-11l2-11,.5-2.73L69.3,569l1.15-5.44c1.44-7.26,3.25-14.43,4.88-21.6L78,531.26c.46-1.77.87-3.55,1.36-5.31l1.45-5.28c2.7-10.3,1.4-13.77.58-17.88a18.72,18.72,0,0,1,0-7.49c.64-3.22,2.11-7.5,5.06-13.68l1,8.31c4.25-21.25,11.73-42.18,20.32-62.43s18.33-39.84,27.1-59.23c-.56,2.58.24,3.09-1.69,6.75a30.53,30.53,0,0,0,2.48-3.19c.88-1.24,1.79-2.66,2.69-4.17,1.81-3,3.53-6.47,5.13-9.68,3.2-6.42,5.37-12.2,4.59-12.77,3.69-5.49,2.32-.38,5.32-3.3a33.2,33.2,0,0,0,4-6.17c1.21-2.31,2.44-4.71,3.55-7,2.26-4.62,4.34-8.75,6.72-10,.79-.44-.8,2.5-1.56,4,1.15-2.74,5.11-8.28,8.06-12.77s5.12-7.8,2.35-6.35c5.16-6.09,9.59-12.26,13.77-18.16,2.13-2.91,4.25-5.7,6.39-8.35,1.07-1.32,2.15-2.6,3.25-3.82s2.28-2.34,3.46-3.42a25.09,25.09,0,0,1,4.16-6.69c1.85-2.35,4.17-4.62,6.26-6.86a70.22,70.22,0,0,0,5.42-6.18c1.38-1.83,2.13-3.42,1.78-4.65.64,1,2.31.34,4.55-1.3a42.73,42.73,0,0,0,3.71-3.13c1.35-1.23,2.82-2.6,4.29-4.09,3-2.95,6-6.38,8.72-9.44a85.76,85.76,0,0,0,6.5-8.16c-.72,1.68,1.05.37,2.91-.75s3.66-2.17,2.87-.14c8.26-7.92,15.65-15.41,12.6-15.85a70.07,70.07,0,0,0,13.07-9c3.87-3.41,7.53-6.88,10.93-10.22a83.71,83.71,0,0,1,10-8.68,30.07,30.07,0,0,1,4.92-2.9,16.81,16.81,0,0,1,5.06-1.38c3.27-2.73,6.46-5.52,9.75-8.13l9.78-7.76,9.84-7.36c1.62-1.23,3.27-2.4,4.93-3.56l4.94-3.47c1.65-1.15,3.28-2.31,4.93-3.43l5-3.28c3.32-2.16,6.59-4.39,9.95-6.42l10-6.13,10.08-5.8c.27,1.13-1.46,2.71-4.15,4.51-1.35.9-2.94,1.84-4.64,2.82l-5.24,3.07a99.6,99.6,0,0,0-9.36,5.85c-2.33,1.79-3.56,3.25-2.68,4.11l4.38-3,4.21-2.84c2.74-1.85,5.35-3.66,7.87-5.42s5-3.36,7.47-5,4.83-3.26,7.28-4.76,4.91-3,7.43-4.49l3.83-2.22c1.31-.71,2.65-1.41,4-2.11,2.72-1.4,5.55-2.8,8.54-4.2s6.19-2.67,9.56-4c7.12-2.44-3.13,3.5-5.12,5.22q4.86-2.5,9.71-4.82c3.23-1.55,6.52-2.9,9.76-4.29l4.86-2c1.62-.67,3.26-1.26,4.87-1.89l9.67-3.66,9.6-3.4,4.74-1.72,4.73-1.64q4.71-1.66,9.32-3.42c3.09-1.13,6.16-2.27,9.18-3.49,0,.42-2.51,1.66-4.94,2.74,4.86-1.6,11.57-2.76,10.46-4.56l-4.63,2c-4.33-.24.07-3.25,5.73-6.26s12.54-6.09,12.81-6.93c-7,7.76,25.47-4.69,13.7,5.82.79-.29,1.63-.64,2.43-1a19.09,19.09,0,0,0,2.18-1.09c1.25-.74,2-1.5,1.44-2.09,5-.67,6.69-.23,2.08,2.37,4.41-1.24,7.29-2.23,9.4-3s3.44-1.41,4.72-2A31.81,31.81,0,0,1,560,56.39a62.81,62.81,0,0,1,8.7-1.92c.11,1-3.14,1.88-4.61,3.39,7.92-3.35,16-6.72,30.11-7.75-.76.71,1,1.26-3.2,1.82,11.94-1.79,22-4.12,32.55-6,1.31-.24,2.63-.49,4-.71l4-.58c2.71-.37,5.48-.71,8.33-1s5.8-.43,8.87-.51,6.25-.06,9.59,0c-3.86,2.32-1.59,2.54,1.83,2.75s8,.39,8.7,2.25c2.37-.21,4.73-.46,7.11-.62l7.12-.47-5.71-1.88c12.48.16,23.66-2.23,34.37-.35l-4.69.47-4.68.59c3.91,0,7.81.14,11.72.27l5.86.19,2.93.1,2.93.17L722.49,46l-3.29-.56-6.59-1.13c6.39-.56,6.14-1.76,6.36-2.56.11-.4.34-.7,1.58-.77a20.87,20.87,0,0,1,2.74.09c1.24.13,2.84.34,4.92.66-3.44.1,12.6,1.07,18.84,4.14h0a81.36,81.36,0,0,1,9.93-.36,60.8,60.8,0,0,1,12,1.72c2.21,1.51-2.54,3.81-1.1,4.82,3.25-1.11,10.53-.1,18,.92,7.45,1.2,15.13,2.32,19.26,1.59-2.7.21-3.22,2.1-2.48,2.67l5.55-1.38c5.52,2,6.25,2.59,5,3.92,16.88,4.49-4.31-6,15.4.93-1.64-.19-1,.36-4.36-.07,2.5.76,5,1.4,7.47,2.1s4.92,1.35,7.37,2l7.31,1.81,7.21,1.86c2.39.62,4.77,1.21,7.13,1.86s4.68,1.37,7,2.1,4.61,1.47,6.89,2.26,4.49,1.73,6.7,2.67c2,2.71-2,1.54-5.87.33s-7.71-2.27-5.14.21c13.11,4,26.89,7.83,40.32,12.41C917.38,92.4,924,95,930.46,97.5c3.22,1.33,6.37,2.74,9.48,4.17q2.33,1.07,4.62,2.17c1.51.76,3,1.55,4.47,2.34l-4.28-2.59c2.81-1.58,7,1.25,12.13,4.91,2.57,1.8,5.28,4,8.22,5.86a43.66,43.66,0,0,0,9.31,4.67c-3.07-1.28-5.2.5-4.14.4,3.89,2.4,7.89,4.68,12.12,6.91s8.57,4.64,13.27,7l14.85,7.89,8.12,4.57,4.29,2.43,4.38,2.64-3.6-.83c8.22,7.07,22.81,16.88,31.56,24.58,3.61,1,8.62,5.4,6.71,1.29,11.7,14.17,25.16,24.53,38.12,35s25.36,21.09,33.72,35.05c-2.61-2.78-7.05-5.82-5-3.61l4.84,4.74c1.61,1.59,3.16,3.23,4.74,4.84,3.14,3.25,6.34,6.45,9.38,9.8.36-3.13-1.19-3.66-3.66-9.1,3.37,1.63,9.13,6.86,13.51,12-4.56-4.21-5.24-3.58-4.5-1.31s2.94,6.18,4.06,8.66c0-1.14,1.73-.22,2-1,2.86,6.83,4.13,6.56,6,6.7s4.19.73,9,9.31l-1.59-.08c1.23,1.35,2.49,2.63,3.75,3.91l3.7,3.89a60.81,60.81,0,0,1,7,8.7c-.17,2.12-1.5.68-3.12-1.12s-3.47-4-4.51-3.56a65.63,65.63,0,0,0,5.46,6.16c1.9,2,3.88,3.87,5.77,5.79,3.82,3.82,7.1,7.89,8.74,12.79-1.6-1.75-3.33-4-5.05-6.31a72.35,72.35,0,0,0-5.16-6.22c.9,2.68,1.67,4.7,2.34,6.38a39.55,39.55,0,0,0,1.89,4.17c1.25,2.37,2.59,4.27,4.59,7.76l-.37-.7c1.51,2.71,2.89,5.49,4.35,8.23s2.91,5.47,4.26,8.26c-.54-1.51-1.14-3-1.73-4.47a30.55,30.55,0,0,1,8.13,7.31,63.84,63.84,0,0,1,6.07,9.24c1.86,3.32,3.75,6.8,6,10.35a70.23,70.23,0,0,0,7.81,10.82c-12.27-14-3.61-1.48-6.94-1.31,1.51,4.54,3.82,11.38,2.15,9.94,3,3.35,4.24,6.81,5.7,10.63a38,38,0,0,0,7.36,12.85c-.66.9,3.65,8.58.62,7.76,5.23,10,.49-3.12,2-2.75a56.8,56.8,0,0,1,6.34,12.73c.89,2.38,1.73,4.85,2.57,7.4s1.57,5.22,2.38,7.91,1.62,5.45,2.52,8.22,1.72,5.63,2.72,8.46a127.26,127.26,0,0,0,7.33,17l2.91,6.82c.9,2.06,1.75,3.91,2.57,5.62l4.55,9.17c1.43,2.86,2.84,5.68,4.32,9s2.87,7.16,4.48,12c.06,3.52-1.14,2.35-2.35.31a48.46,48.46,0,0,1-2.43-4.93c.3,2.76.67,5.33,1.11,7.78s.83,4.81,1.36,7.12c1,4.63,2.42,9.1,3.89,14.1-1.23-1.9-1.53.37-2,3.67a16.64,16.64,0,0,0,3,6.83c.95,1.58,1.74,3.54,1.93,9.07a30.8,30.8,0,0,1-5.22-7.52c1.24,4.73,2.71,9.41,4.17,14.14s2.7,9.57,3.84,14.54c-1.31,2.87-3.41-5.73-5-9.09l1.91,9.27c.64,3.29,1.25,6.68,1.93,9.81,1.4,6.26,2.68,11.58,4.19,13.21l.3-7.4c.5,4.14-2.08,2.35-2.89-.64-3.21-9.45-.67-14.09.23-14.78l1.45,7.12c1.2-2,1.57-4.84,1.34-8.15a70.84,70.84,0,0,0-2.11-11.1c-1-4-2.36-8.15-3.51-12.21-.58-2-1.13-4-1.59-6s-.93-3.83-1.23-5.63c1.73,1.74,3.51,3.48,5.22,5.24-2-4.73-4.14-9.43-6.19-14.1.25-1.67.77-3.15,1.55-3.36s1.78.88,2.75,4.38c0-1.34,0-2.49-.13-3.49a23.73,23.73,0,0,0-.42-2.57A22.47,22.47,0,0,0,1290,532a18,18,0,0,1-1.35-8.54c.14-1.06.43-.66.78.21-1.17-3.26-2.42-6.49-3.62-9.73,1.33,1.75,2.44-2.37,3.36,3.94a70.23,70.23,0,0,0-2.47-12.38c-1.11-3.62-2.35-6.79-3.47-9.6l-1.57-4c-.5-1.24-.94-2.41-1.29-3.52a14.13,14.13,0,0,1-.78-6.13l.69,1.41c-1.09-3-1.94-5.33-2.68-7.05a33,33,0,0,0-1.8-3.64c-.93-1.53-1.39-1.49-1.85-1.25-.93.5-1.88,1.8-6.53-6.72,1-4.85,1.9-9.74,2.83-14.68l-3.71-1.34c-.81-2.52-2.48-7.49-1-7-5.46-8.47-.65,2-4.52-2.6a40.43,40.43,0,0,0-1.14-5.09c-.54-1.76-1.19-3.57-1.89-5.41-1.43-3.66-3-7.43-4.55-10.86-3.09-6.87-5.39-12.74-3.84-15-2-1.59-1.13,1.36-.67,3.25.22,1,.35,1.64,0,1.34a32.5,32.5,0,0,1-3-4.46c1.56-2.84-.31-6.33-2.91-10.52s-6.12-9-7.65-14.72c4,2,7.66,12.53,4.61,1-3.58-2.14-6.07-7.22-8.24-12.91s-4.39-11.78-7.16-15.89c-1.68.69-4.74-3.71-8.54-10-.94-1.58-2-3.26-3.05-5l-3.35-5.34c-1.15-1.81-2.31-3.65-3.53-5.42s-2.49-3.49-3.75-5.13c.77.12-3-6.72-8.22-15-1.31-2.08-2.64-4.31-4.08-6.5l-4.3-6.58-7.64-11.68h.76c-4.7-.16-13.87-13.09-22-21.34,2-1.07,4-.07,8.77,4.15-2.3-2.81-4.69-5.56-7-8.34a19.13,19.13,0,0,1-4.18-2.78c-1.6-1.33-3.55-3.09-6-5.59l3.87.23c-2.44-2.69-5-5.28-7.7-7.85l-8.43-7.73c-2.83-2.7-5.86-5.38-8.82-8.39-1.49-1.5-3-3.06-4.46-4.71s-3-3.3-4.54-5.1c-1.27.55.13,4.41-.08,6.55s-2,2.58-9.55-3.6c.45-1.5,1.56-3.72,5.63-.54-1.34-1-5-3.39-7.12-6.1,2.46,1.19,4.83,2.49,7.25,3.75-5.34-6.65-4.5-1.69-9.27-6.45,1.45-1.35-2.7-4.44-.92-4.93,1.4,1,3.76,4.62,6.19,5.82-2.67-2.73-5.5-5.88-7.82-8.76s-4.21-5.37-4.85-7c-.25,1.28-1.77,2-6.12-1.54a52.16,52.16,0,0,1-5.08-4.84c-.82-1-.94-1.53-.88-2,.11-.88.89-1.37-2-4.5-1.8-.6-4.18-2.72-6.49-4.3s-4.38-2.8-5.4-1.72c-3.29-2.67-3-4.24-3.82-5.9-1.66-.93-4.28-2.66-7.15-4.68s-6-4.34-8.84-6.17c-5.66-3.73-9.83-6.08-7.34-2.33l1.43,1.3c-.33-.16-.67-.41-1.06-.62l0,0,0,0c-5.34-3.07-10.66-6.31-15.81-9.92-2.57-1.81-5.21-3.54-7.78-5.39s-5.14-3.72-7.74-5.53l-7.81-5.44c-1.3-.9-2.59-1.82-3.91-2.68l-4-2.56c-2.65-1.69-5.3-3.33-8-4.91s-5.41-3-8.14-4.31l.51-.84L961.76,102c-6.91-3.09-13.35-5.92-18.52-7.08-3.87-1.81-8.41-5.92-6.26-6.21-5.21-2-8.25-2.72-11.7-4.07a137.87,137.87,0,0,1-14.51-6.89c11,2.63-3-2.88,11.09,3.17-6.53-3.13-10.41-5.39-14.6-7.24A73.09,73.09,0,0,0,890.79,69c2.93-.31.63-2-3.26-3.74a66.82,66.82,0,0,0-12.77-4.36c1.52.82,3,1.61,4.54,2.44l4.49,2.54c-1.85-.56-3.64-1.13-5.37-1.71s-3.45-1.09-5.11-1.65c-3.33-1.12-6.54-2.28-9.78-3.44l4.54-2a78.61,78.61,0,0,0-10.17-4,101.84,101.84,0,0,0-10-2.79c-6.66-1.41-13.1-2.47-19.36-3.21-3.12-.41-6.18-.82-9.17-1.3s-5.94-.9-8.81-1.53a78.38,78.38,0,0,1-8.41-2.31,52.38,52.38,0,0,1-8.06-3.35c-8.14.81,15.53,4.64,8.09,6a85.78,85.78,0,0,1-9.78-2.9c-1.58-.56-3.12-1.15-4.62-1.74l-4.32-1.67c-5.51-2.17-9.91-4.14-12-4.46a49.17,49.17,0,0,0-10.86-1.56,36.47,36.47,0,0,0-7.43.67,52.49,52.49,0,0,1-7.58.87,44.22,44.22,0,0,1-5-.14c-1.87-.14-4-.34-6.39-.72,2.39,1.4,4.38,4.76-10.13,4.59-13.44-1.32-16.35-6-7.69-6.44,3.27.11,4.83.58,4.66,1,2.22-.1,4.77-.11,6.12-.33s1.48-.66-1.17-1.54l-1.86,1c-3.33-.83-9.71-1.5-14.68-2.18s-8.57-1.17-6.31-2.08c-10.4.74-4.49,1.78,3.12,2.68a151.82,151.82,0,0,0-22.5-1.47l-10.68,0c-3.74,0-7.74,0-12.27-.28,2.89.62,5.55,2,2.7,2l-4.5-.16c-1.35,0-2.56,0-3.64,0-2.16,0-3.82.13-5.12.26A12.78,12.78,0,0,0,645.53,31a15.4,15.4,0,0,1-3.05,1.39,40.17,40.17,0,0,1-8.36,1.39c-5.12-.58-4.29-1.72-4.41-2.37s-1.2-.94-10.12.65c-11.09-.24-2.63-2.93,1.7-4.28a82.26,82.26,0,0,1-11.83,1.78c-3.79.39-7.44.53-10.88.57-1.72,0-3.39,0-5,0l-4.63,0c-3,0-5.66.09-8,.31l8.53-2.16a133.85,133.85,0,0,1-13.66,2.5c1.76.49,3.53,1.08,5.28,1.62l-3.63.25c-1.12.11-2.14.21-3,.26-1.72.1-2.8,0-2.83-.46-4.94,2.39,4.59,3.24-5.32,7-3.45-.09-8.45,1.25-13,2.19a44.67,44.67,0,0,1-6.13,1c-1.74.13-3.1,0-3.84-.65l3.45-.6c1-.16,1.83-.31,2.53-.45a14.27,14.27,0,0,0,2.76-.76c1-.45.52-.81-.07-1.2-1.17-.78-2.8-1.68,6.08-3.64a72.22,72.22,0,0,1-12.7,2.39c-.82-.18.58-.8,1.92-1.23-10.36.73-12.49,2.17-14.62,3.87s-4.24,3.87-14.55,6.34c1.09-1.18-.31-1.71-2.4-1.78a19,19,0,0,0-6.48,1c8.31-2.21,4.69,1.8-2.5,5.15A45.48,45.48,0,0,0,494,54.77,43.66,43.66,0,0,1,486.08,58l8-1.69c-1.06,1.24-3.23,2.29-6.23,3.42S481,62.3,476.6,64c-1.2-1.06,7.84-3.54,4.46-3.09a25.31,25.31,0,0,1-7.67,3.38c-2.83.78-5.86,1.45-9.06,2.06s-6.54,1.22-9.85,2.23a49.47,49.47,0,0,0-9.89,4.05c-3.39.63-3.84-.05-4.19-.76s-.58-1.41-3.5-.65a57.69,57.69,0,0,1-9,4.36c-2.56.93-4.73,1.6-7,2.2a54.78,54.78,0,0,0-16.52,7c5.54,0,6-.83-4,6.41l12.5-6.76L425.59,78l-7.65,5.24-3.81,2.61c-1.26.88-2.51,1.8-3.76,2.7,3.85-1.83,7.85-3.91,11.45-5.87,1.8-1,3.51-1.88,5.08-2.66a31.7,31.7,0,0,1,4.23-1.75c-3.64,2.51-5.26,3.65-5.45,4.09s1.09.27,3.34.37c-6,.71-11.16,3.44-16.33,6.54s-10.47,6.41-17,8.39l-2.24-5.48A77.38,77.38,0,0,0,380,98.19c-2.08,1.18-4.12,2.41-6.15,3.68l-3.05,1.94-3,2.07c-8.16,5.56-16.8,11.67-28.4,18,2.6-1.19,5.14-2.46,7.77-3.58-.94,1.87-4.32,4.13-8.36,6.53-2,1.21-4.19,2.44-6.27,3.74a60.4,60.4,0,0,0-5.68,4.06c-.42-2.09-5.28.25-9,1.26.59.48-3.41,3.21-7.53,6.4s-8.25,7-8.07,9.24c-3.66,1.63-7.41,3.18-11,4.92a68.56,68.56,0,0,0-10.16,8.35,84.34,84.34,0,0,0-6.29,7.52c-.93,1.22-1.86,2.43-2.84,3.67s-2,2.54-3.16,3.86a76.49,76.49,0,0,1-9.16,8.66c1.59-2.85.43-3,0-3.71s-.05-2,4.71-7c-2.62,2.21-5.19,4.22-7,5.87s-2.76,2.89-2.35,3.44c-1.9.87-5,4.49-8.37,8.31s-6.82,7.84-9.77,9.3c-1.48,2.63-.71,4.78-6.29,10-.88.3-.66-.72-.66-.72.34.37-1.59,2.67-2.76,4.55s-1.62,3.26,1.48,1.65c-9.5,5.29-19.7,15.92-28.91,26.89l-3.48,4.06-3.35,4.05c-2.22,2.66-4.43,5.22-6.57,7.62a77,77,0,0,1-12.16,11.79c-8.71,12.13-18.6,27.12-26,38.41,0-1.05-.79-.58.78-2.61-5.89,7.29-6.3,10.47-6.87,13.87s-1.25,7.1-7.62,15.57c-4.11,3.82-3.06,1.19-1.53-1.76s3.67-6.14,1.35-3.6c-3.6-.48-6.65,5.21-10.17,12.24-1.75,3.52-3.46,7.46-5.47,11.14A51.78,51.78,0,0,1,112,367.8l1.28-3.25c-3.53,4.33-6.18,10.53-8.73,17.69s-5.24,15.19-9.16,23.21c0,0-.18-1-.85-.5a93.14,93.14,0,0,1-2.46,10.87l-1.78,6.3c-.63,2.17-1.3,4.4-2,6.66-1.46,4.49-2.82,9.17-4.25,13.71-.7,2.27-1.45,4.5-2.09,6.7l-1.87,6.39c-.63-5.86,1.32-7.79-2.2-5.59-2.2,7.37,4.62-.71.28,13.93-2.83,4.27-7.47,14.38-10.44,15,.64-2.33,1.37-4.64,2.1-6.94L72,465.07c-2.83,3-4.31,7.47-5.31,12.1s-1.59,9.42-3,13l-1.22-1.37a114.88,114.88,0,0,0-2.65,13.08c-.24,1.76-.45,3.37-.58,4.91L59,511.28c-.2,3-.44,6-1,9.65s-1.25,8.14-2.59,13.94l1.68-2.16c.48,6.74-.46,9.3-1.66,11.84a22.7,22.7,0,0,0-1.65,4.31,23.71,23.71,0,0,0-.54,7.38l-4.53,3.21c-.68,8.66-.71,30.35-1.37,45.67-1.14-4.47-1.4-11.22-1.58-18.3l0-2.66,0-2.66.07-5.25.07-9.54c-.66,4.23-1.59,11.45-2.17,18.19s-.6,13,.12,15.32c0-3.45-.46-7.87.53-11.18a131.86,131.86,0,0,1,1.57,18.4c.1,3.45,0,7.07-.07,10.9s-.23,7.85-.52,12.07c-3.76-1.72-4.84,9.32-5.38,22.33l-.34,9.95c-.16,3.33-.16,6.61-.36,9.68s-.43,5.93-.82,8.42A25.12,25.12,0,0,1,36.9,687c.5,3.77.88,7.53,1.2,11.29s.71,7.52,1,11.31.52,7.58.77,11.41.4,7.7.72,11.59l.87,11.83c.3,4,.77,8,1.18,12.11.22,2,.44,4.11.69,6.19l.91,6.26c.66,4.2,1.26,8.49,2.2,12.81,3.51-13.34,2.1,10.08,7.7,6.78.93,4,1.63,6.69,2,8.54a9.2,9.2,0,0,1,.34,3.21c.48,8.32,1.34,16.6,2.15,24.93-.09,3.06-.94,1.27-1.87-1.17s-1.89-5.54-2.47-5c.48,2.2.82,4,1.07,5.42s.44,2.55.52,3.43a6.9,6.9,0,0,1-.21,3.22c-.47,1.3-1.28,1.89-.49,7.9.75-1.48,1.87-.16,3.14,2.76A68.47,68.47,0,0,1,62,854.33l-1.42-14.67a70.19,70.19,0,0,1,4.69,13.62,61.75,61.75,0,0,1,1.27,9.1,52.09,52.09,0,0,0,1.35,9.17,71.17,71.17,0,0,0,5.41,13.53l-4.49-6.94c1.37,3,3,7.35,5,12.27s4.22,10.54,6.76,16c1.24,2.74,2.51,5.46,3.79,8.08s2.69,5.08,4,7.38,2.65,4.42,3.94,6.25a35.65,35.65,0,0,0,3.85,4.54c.33,2.37.11,5.85-2.72.84,1.58,3.56,3.23,7.21,5.11,10.83s3.88,7.25,5.92,10.89c4.22,7.21,8.61,14.43,13.13,21.31l3.3,5.15c1.08,1.71,2.22,3.36,3.3,5,2.18,3.3,4.23,6.57,6.22,9.71A190.23,190.23,0,0,1,140.74,1014l-2.55-1.15a82.37,82.37,0,0,0,5.62,6,25.9,25.9,0,0,1,5.12,7.67c-.72,0-2.56-1.08-1.1,1.18,1.09,1.11,3.81,3.92,6.75,7.26a65.31,65.31,0,0,1,8.1,10.51l-5.23-4.31c8.11,12.89,16.27,21.38,24.27,29,4.06,3.79,8.14,7.34,12.23,11.14s8.39,7.66,12.86,12.13c-1.65,1.46,1.31,6.79,5.68,12.92a223.28,223.28,0,0,0,14.42,17.22l-.73.15c6.2,6.35,12.38,11.76,18.35,16.81,3,2.47,6,4.84,9,7.14q2.22,1.75,4.49,3.36l4.5,3.24c5.95,4.35,12.09,8.29,18.27,12.49,6.31,4,12.67,8.31,19.55,12.69,6.7,8,20.59,18.2,36.36,28.34s33.49,20,47.46,28.67c-2.06-1.48-1.47-2.16.28-2.17a21.34,21.34,0,0,1,7.39,1.66,35,35,0,0,0,5.84,2.86c2.16.87,4.43,1.57,6.4,2.3,3.93,1.43,6.69,2.74,5.31,4.32l-2.44-1.22a15.93,15.93,0,0,0,4.54,4.47,60.91,60.91,0,0,0,7.44,4.16c5.57,2.78,12.19,5.18,17.88,7.56l3.83-4.14a108.94,108.94,0,0,0,24.23,12.09c4.51,1.75,9.23,3.2,14,4.61,2.36.7,4.72,1.41,7.09,2l7.06,1.8c18.66,4.71,35.68,7.87,43.53,13,2,.09,4,.29,6.14.54s4.26.55,6.42.78c4.32.5,8.62,1,12.5,1.06l-.91,2.71c5.27,1.11,9.9,2,14.27,2.86,2.18.45,4.32.79,6.44,1.13l6.39,1c2.16.31,4.35.67,6.64.94l7.22.79,8.08.8,9.28.62-5.6,1.53a33.72,33.72,0,0,0,17.12-2.65,63,63,0,0,1,7.24-2.45,29.46,29.46,0,0,1,4.1-.73,33.53,33.53,0,0,1,4.74-.22l4,4.38c3.26.1,6.53.33,9.8.46s6.54.3,9.82.48l4.92.28,4.92.16,9.85.27c3.28.07,6.56,0,9.84-.11s6.54-.2,9.8-.5,6.49-.68,9.72-1.15q2.42-.35,4.82-.78c1.6-.32,3.19-.68,4.78-1.06-.37.65-1,2-5.25,2.47,6.14-.46,18.1-.73,27.86-2a60.08,60.08,0,0,0,12-2.31c2.78-.95,4-2,2.69-3.33.21.92,2,1.18,4.75,1a75.2,75.2,0,0,0,10.62-2c2.06-.49,4.23-1,6.41-1.62s4.38-1.3,6.53-2c4.3-1.35,8.44-2.59,11.77-3.8l-1.58,3.19c10.89-6,11-6.92,26.83-11.84,1.95-.28,2.91,0,2.74.51s-1.48,1.11-4.09,1.38a27.69,27.69,0,0,0,11.42-3.6c2.61-1.41,5.57-2.78,13.33-4.37l-5.15,3.39c6.47-1.81,9.39-2.87,11.49-4s3.39-2.31,6.58-4.44c7.69-3.53,24.25-7.5,27-5.84.58-1,2.41-2.7,5-4.36a37.73,37.73,0,0,1,4.5-2.41,49.91,49.91,0,0,1,5.37-2c1.34.48-1.1,2.13-2.35,2.92a115.79,115.79,0,0,0,14-5.33c4-1.88,7.47-3.85,10.75-5.66s6.33-3.58,9.51-5.14a61.77,61.77,0,0,1,10.27-4c.69.69,1.8.65,3.07.33-4,2-7.87,3.75-11.36,5.35s-6.6,3.06-9.22,4.13c-5.22,2.2-8.24,3.43-7.66,3.07,1,2.37,14.5-3,5.33,4.84,2.48-1.64,5.41-3.52,8.52-5.7s6.48-4.48,9.94-6.73,7-4.6,10.45-6.6a103.43,103.43,0,0,1,10.17-5.22,7,7,0,0,1,2.06-.08l-1.16.94a36.39,36.39,0,0,0,7.69-4.54c4.13-1.83,6.79-3,10.59-5,.63.26,1.89-.05,3.52-.74a61.39,61.39,0,0,0,5.7-3c2.1-1.22,4.32-2.59,6.41-3.87s4-2.57,5.55-3.49c-2-2.08,6.25-6.69-2.46-4,1.07-.44-1,1-5,3.62a26.73,26.73,0,0,0-2.49,1.81c.08-.14.18-.3.3-.46-4,2.45-9.25,5.75-15.38,9.14,4.3-4,8.74-8.06,16.38-10.76,2.24-3.43,4.66-7.2,6.13-9.12,10.43-1.71,27.33-10.67,30.87-10.25,8.65-6.89,18.89-14.89,27.89-22.77,4.45-4,8.6-8,12.08-11.72a60.93,60.93,0,0,0,8-10.65c4.26-4.57,6.36-3.59,8.67-4.5-2.35,2.78-5.58,5.6-6.6,7.4,2.18-2.26,4.9-5,7.86-7.86l4.51-4.33,4.35-4.43a91.52,91.52,0,0,0,7.11-8c1.76-2.36,2.8-4.28,2.69-5.45,6.18-4.87,5.21-2.74,4.56-1.31-.33.72-.58,1.25.2.64a70.52,70.52,0,0,0,6.24-6.33l-1.24,2.88c17.09-13.08,27.06-27.68,36.78-42.74,4.85-7.56,9.73-15.22,15.38-23.16,2.89-3.92,5.86-8,9.24-12.08s7-8.32,11.15-12.61c-2.24,2.42-3.34,3.63-4.23,3.82,2.07-2.63,4.15-5.29,6.15-8s3.92-5.51,5.85-8.3c1-1.4,1.94-2.79,2.87-4.22l2.75-4.3c1.82-2.88,3.66-5.77,5.43-8.7,3.43-5.93,7-11.83,10.14-17.93,1.61-3,3.27-6.06,4.84-9.12l4.63-9.22c1.58-3.06,3-6.17,4.51-9.27s3-6.17,4.43-9.28c2.82-6.24,5.8-12.38,8.54-18.6,5.73-12.33,11.13-24.65,17-36.6,3-6.92,4.09-11,4.59-14.44s.27-6.38.83-11l3.88-2.18c.46-5.35.78-10.71,1.17-16a77,77,0,0,1,4.17-15.23c1.75-4.79,3.72-9.44,5.72-14.3a128.91,128.91,0,0,0,5.21-15.66,81.94,81.94,0,0,0,1.65-9,75,75,0,0,0,.68-10.1c-.87,1.08-1.72,2.16-2.63,3.22.57-2.46,1-5.69,1.55-9.09s1.07-7,1.46-10.22c.85-6.46,1.73-11.43,2.78-10.44a22.17,22.17,0,0,1-.7-2.65,8.6,8.6,0,0,1,.55-4.69l1.6-.12c0-4.17.07-8.32,0-12.48l-.25-12.46c.37-2.37.67-4.11,1-5.37a8.09,8.09,0,0,1,1-2.57c.71-1,1.46-.86,2.2-1s1.47-.53,2.15-2.67,1.37-6,1.66-13.07c-.05-2.63-.29-5.83-.65-9.07s-1-6.54-1.53-9.37c-1.13-5.67-2.35-9.49-2.9-7.54-.13,4.21-1.12,10.73-2.71,11l-.7-9.49c-2.31-.87-4.65-3.11-6.84-2.24s-4.25,4.81-6,16.18l2.24,16-2.58,5c.28-4.45.38-8.91.5-13.37a24.66,24.66,0,0,0-1.16,9.67,76.09,76.09,0,0,0,1.29,8.16c-1.28,1.2-2.25,3.37-2.91,6.47l3,16c-1,.85-1.71-1-2.46-1.74s-1.42-.42-2.53,4.71c1.22,7.5,4.86-6.56,4.83,5.67a61,61,0,0,1-3.23,6.34c-.68,1.44-.89,3.1-.61,7.65-1.36,1.08-1.86-.91-1.89-4.47a113.52,113.52,0,0,1-.85,14c-.5,4.76-.8,9.07.08,11.31-1.92,3.7-3.1,10.31-4.19,15.83s-2.47,9.87-4.52,9a51.11,51.11,0,0,1,.17,9.1,86.74,86.74,0,0,1-1.51,12.48c-1-7.14-2.58-.48-4.88,7.23-2.13,7.76-5.06,16.56-7.24,14.08a21,21,0,0,1,.15,4.62,37.79,37.79,0,0,1-.78,5.61c-.83,4-2.05,8.54-3.5,13.25l-4.68,14.38a136.75,136.75,0,0,0-4,13.78,9.86,9.86,0,0,1,.75-4.48,57.14,57.14,0,0,1-5.09,9.62c-1.51,2.33-2.92,4.23-4.52,7,3.09,2.66-2.13,17.13-3.59,25.65-8.53,9.34-1.05-8.62-6-6.7,1.56.39.1,5.47-1.32,10.11s-2.84,8.82-.74,7.57c-6.18,7.24-4.6,6.61-9.68,9.31,3.56,3.7-3.19,8-4.35,16.1-8.64,10.47-5.61.75-11.73,14.13-2.41,2.61-2.34.88-1.66-1.48A56.72,56.72,0,0,1,1203.35,973.06ZM959.72,1215.88l0,0,6.33-3.52Zm-26.48,13c3.29-1.43,7.37-3.27,11.63-5.34,1.34.4.8,1.85-1.93,3C944.12,1225.29,937.56,1227.73,933.24,1228.85Zm65.14-12c-3.94,2.8-5.61,3.14-6.48,2.95,2-1.15,4.18-2.62,7.08-4.54.07-.16.25-.41.31-.58A4.62,4.62,0,0,1,998.38,1216.82Z"/><path class="cls-5" d="M1003.92,1209.26c.57-.4.83-.7,1.58-1.2-1,.32-1.87.6-2.77.93-.35.55-.71,1.11-1,1.62Z"/><path class="cls-5" d="M1044.69,152.79l-.48-.43a5.21,5.21,0,0,1,.84,1.11A4.45,4.45,0,0,1,1044.69,152.79Z"/><polygon class="cls-5" points="536.56 1264.02 536.44 1264.72 539.08 1264.66 536.56 1264.02"/><path class="cls-5" d="M1157.21,272.09a5,5,0,0,0,.78,2.12A6.34,6.34,0,0,0,1157.21,272.09Z"/><path class="cls-5" d="M1198,329.34c1.51,3,3,6,4.43,9C1200.66,334.35,1199.25,331.53,1198,329.34Z"/><path class="cls-5" d="M1224,376.68a3,3,0,0,0,1.56.37.7.7,0,0,1,0-.1Z"/><path class="cls-5" d="M495.2,74.95c-.69.22-1.36.46-1.95.71C488.78,77.6,491.86,76.41,495.2,74.95Z"/><path class="cls-5" d="M747,45.89c-2.76.2-5.48.39-8.33.38C743.19,47,746.7,47.47,747,45.89Z"/><path class="cls-5" d="M254.58,218.49s0,0,0-.06l-1.27,1.19Z"/><path class="cls-5" d="M726.84,45.17a50.08,50.08,0,0,0,11.85,1.1A76.53,76.53,0,0,0,726.84,45.17Z"/><path class="cls-5" d="M1290.24,599.13l.18,2.59c.18-.06.35.08.48.26Z"/><path class="cls-5" d="M1290.9,602l.58,2.84A6.52,6.52,0,0,0,1290.9,602Z"/><path class="cls-5" d="M1292.72,610.8l-1.24-6C1291.66,606.91,1291.8,609.49,1292.72,610.8Z"/><path class="cls-5" d="M1279.94,528.58l-1.17-.57A1.34,1.34,0,0,0,1279.94,528.58Z"/><path class="cls-5" d="M1274.54,507.57c.6,2.52.8,5.81,1.21,9.31a58.43,58.43,0,0,0,2.09,10.65l.93.48c-1.07-1.5-1.41-5.5-1.84-9.69S1276.06,509.72,1274.54,507.57Z"/><path class="cls-5" d="M1256.86,417.07c1.13,2.88,2.11,5.82,3.17,8.72s2.11,5.81,3.1,8.74c-.05-1.72-.21-3.67.14-4.26s1.18.2,2.81,4.11c-2.83-11.49-3-10.13-3.46-8.76S1261.34,428.35,1256.86,417.07Z"/><path class="cls-5" d="M1233.3,364.54c5.11,8.6,1.34-.85,2.12-.68-1.9-2.59-3.19-4.13-3.56-4.2S1232,361,1233.3,364.54Z"/><path class="cls-5" d="M933.57,86.07l2-1.93C928.31,81.37,935.07,85,933.57,86.07Z"/><path class="cls-5" d="M855.18,70.9c2.19,1.2,4.38,2.39,6.53,3.67l4-1.16-5.27-1.31C858.72,71.66,856.95,71.3,855.18,70.9Z"/><polygon class="cls-5" points="814.62 41.42 818.01 41.79 805.17 39.94 814.62 41.42"/><path class="cls-5" d="M182,260q1.94.08,3.92.2C188.82,255.92,186.8,252.77,182,260Z"/><path class="cls-5" d="M54.22,531.86A22.7,22.7,0,0,0,51,539.16a27.1,27.1,0,0,0-1.11,9.23c.75-3.33,1.74-6.6,2.58-9.47A47,47,0,0,0,54.22,531.86Z"/><path class="cls-5" d="M453.46,1265.53l-6.11-1.19c3.72,1.09,7.4,2.23,11.15,3.2C456.82,1266.87,455.12,1266.24,453.46,1265.53Z"/></svg>